<mxfile host="app.diagrams.net" modified="2024-05-17T15:18:21.445Z" agent="Mozilla/5.0 (Windows NT 10.0; Win64; x64; rv:126.0) Gecko/20100101 Firefox/126.0" etag="yneN1Vsp4HACGT4Uv_yQ" version="24.3.1" type="device">
  <diagram id="C5RBs43oDa-KdzZeNtuy" name="Page-1">
    <mxGraphModel dx="3051" dy="1114" grid="1" gridSize="10" guides="1" tooltips="1" connect="1" arrows="1" fold="1" page="1" pageScale="1" pageWidth="827" pageHeight="1169" math="0" shadow="0">
      <root>
        <mxCell id="WIyWlLk6GJQsqaUBKTNV-0" />
        <mxCell id="WIyWlLk6GJQsqaUBKTNV-1" parent="WIyWlLk6GJQsqaUBKTNV-0" />
        <mxCell id="FUYMao5o1oho_74qPGuF-0" value="&lt;i&gt;AbstractSensor&lt;/i&gt;" style="swimlane;fontStyle=1;align=center;verticalAlign=top;childLayout=stackLayout;horizontal=1;startSize=26;horizontalStack=0;resizeParent=1;resizeParentMax=0;resizeLast=0;collapsible=1;marginBottom=0;whiteSpace=wrap;html=1;" vertex="1" parent="WIyWlLk6GJQsqaUBKTNV-1">
          <mxGeometry x="190" y="360" width="290" height="190" as="geometry" />
        </mxCell>
        <mxCell id="FUYMao5o1oho_74qPGuF-1" value="&lt;div&gt;- id : unsigned int&lt;/div&gt;&lt;div&gt;-name : QString&lt;br&gt;&lt;/div&gt;" style="text;strokeColor=none;fillColor=none;align=left;verticalAlign=top;spacingLeft=4;spacingRight=4;overflow=hidden;rotatable=0;points=[[0,0.5],[1,0.5]];portConstraint=eastwest;whiteSpace=wrap;html=1;" vertex="1" parent="FUYMao5o1oho_74qPGuF-0">
          <mxGeometry y="26" width="290" height="34" as="geometry" />
        </mxCell>
        <mxCell id="FUYMao5o1oho_74qPGuF-2" value="" style="line;strokeWidth=1;fillColor=none;align=left;verticalAlign=middle;spacingTop=-1;spacingLeft=3;spacingRight=3;rotatable=0;labelPosition=right;points=[];portConstraint=eastwest;strokeColor=inherit;" vertex="1" parent="FUYMao5o1oho_74qPGuF-0">
          <mxGeometry y="60" width="290" height="8" as="geometry" />
        </mxCell>
        <mxCell id="FUYMao5o1oho_74qPGuF-3" value="&lt;div&gt;+ AbstractSensor(name : QString)&lt;/div&gt;&lt;div&gt;+ AbstractSensor(name : QString, id : unsigned int)&lt;/div&gt;&lt;div&gt;+ getId( ) : unsigned int&lt;/div&gt;&lt;div&gt;+ getName( ) : QString&lt;/div&gt;&lt;div&gt;+ setName(name:QString) : void&lt;/div&gt;&lt;div&gt;+ Simulate( ) : void = 0&lt;/div&gt;&lt;div&gt;+ accept(visitor : SensorVisitorInterface) : void&lt;/div&gt;&lt;div&gt;+ ~AbstractSensor( )&lt;br&gt;&lt;/div&gt;&lt;div&gt;&lt;br&gt;&lt;/div&gt;&lt;div&gt;&lt;br&gt;&lt;/div&gt;" style="text;strokeColor=none;fillColor=none;align=left;verticalAlign=top;spacingLeft=4;spacingRight=4;overflow=hidden;rotatable=0;points=[[0,0.5],[1,0.5]];portConstraint=eastwest;whiteSpace=wrap;html=1;" vertex="1" parent="FUYMao5o1oho_74qPGuF-0">
          <mxGeometry y="68" width="290" height="122" as="geometry" />
        </mxCell>
        <mxCell id="FUYMao5o1oho_74qPGuF-8" style="edgeStyle=orthogonalEdgeStyle;rounded=0;orthogonalLoop=1;jettySize=auto;html=1;entryX=0.5;entryY=1;entryDx=0;entryDy=0;" edge="1" parent="WIyWlLk6GJQsqaUBKTNV-1" source="FUYMao5o1oho_74qPGuF-4" target="FUYMao5o1oho_74qPGuF-0">
          <mxGeometry relative="1" as="geometry">
            <Array as="points">
              <mxPoint x="150" y="580" />
              <mxPoint x="335" y="580" />
            </Array>
          </mxGeometry>
        </mxCell>
        <mxCell id="FUYMao5o1oho_74qPGuF-4" value="QuantitySensor" style="swimlane;fontStyle=1;align=center;verticalAlign=top;childLayout=stackLayout;horizontal=1;startSize=26;horizontalStack=0;resizeParent=1;resizeParentMax=0;resizeLast=0;collapsible=1;marginBottom=0;whiteSpace=wrap;html=1;" vertex="1" parent="WIyWlLk6GJQsqaUBKTNV-1">
          <mxGeometry x="-70" y="640" width="420" height="190" as="geometry" />
        </mxCell>
        <mxCell id="FUYMao5o1oho_74qPGuF-5" value="- val : unsigned int" style="text;strokeColor=none;fillColor=none;align=left;verticalAlign=top;spacingLeft=4;spacingRight=4;overflow=hidden;rotatable=0;points=[[0,0.5],[1,0.5]];portConstraint=eastwest;whiteSpace=wrap;html=1;" vertex="1" parent="FUYMao5o1oho_74qPGuF-4">
          <mxGeometry y="26" width="420" height="26" as="geometry" />
        </mxCell>
        <mxCell id="FUYMao5o1oho_74qPGuF-6" value="" style="line;strokeWidth=1;fillColor=none;align=left;verticalAlign=middle;spacingTop=-1;spacingLeft=3;spacingRight=3;rotatable=0;labelPosition=right;points=[];portConstraint=eastwest;strokeColor=inherit;" vertex="1" parent="FUYMao5o1oho_74qPGuF-4">
          <mxGeometry y="52" width="420" height="8" as="geometry" />
        </mxCell>
        <mxCell id="FUYMao5o1oho_74qPGuF-7" value="&lt;div&gt;+ QuantitySensor(name : QString)&lt;/div&gt;&lt;div&gt;+ QuantitySensor(name : QString,&amp;nbsp;&lt;/div&gt;&lt;div&gt;&lt;span style=&quot;white-space: pre;&quot;&gt;&#x9;&lt;/span&gt;&lt;span style=&quot;white-space: pre;&quot;&gt;&#x9;&lt;/span&gt;&lt;span style=&quot;white-space: pre;&quot;&gt;&#x9;&lt;/span&gt;&lt;span style=&quot;white-space: pre;&quot;&gt;&#x9;&lt;/span&gt;id : unsigned int,&amp;nbsp;&lt;/div&gt;&lt;div&gt;&lt;span style=&quot;white-space: pre;&quot;&gt;&#x9;&lt;/span&gt;&lt;span style=&quot;white-space: pre;&quot;&gt;&#x9;&lt;/span&gt;&lt;span style=&quot;white-space: pre;&quot;&gt;&#x9;&lt;/span&gt;&lt;span style=&quot;white-space: pre;&quot;&gt;&#x9;&lt;/span&gt;value : unsigned int=0)&lt;/div&gt;&lt;div&gt;+ Simulate( ) : void&lt;/div&gt;&lt;div&gt;+ getVal( ) : unsigned int&lt;/div&gt;&lt;div&gt;+ setVal(newVal : unsigned int) : void&lt;br&gt;&lt;/div&gt;&lt;div&gt;+ accept(visitor : SensorVisitorInterface) : void&lt;/div&gt;&lt;div&gt;&lt;br&gt;&lt;/div&gt;&lt;div&gt;&lt;br&gt;&lt;br&gt;&lt;/div&gt;" style="text;strokeColor=none;fillColor=none;align=left;verticalAlign=top;spacingLeft=4;spacingRight=4;overflow=hidden;rotatable=0;points=[[0,0.5],[1,0.5]];portConstraint=eastwest;whiteSpace=wrap;html=1;" vertex="1" parent="FUYMao5o1oho_74qPGuF-4">
          <mxGeometry y="60" width="420" height="130" as="geometry" />
        </mxCell>
        <mxCell id="FUYMao5o1oho_74qPGuF-9" value="EventSensor" style="swimlane;fontStyle=1;align=center;verticalAlign=top;childLayout=stackLayout;horizontal=1;startSize=26;horizontalStack=0;resizeParent=1;resizeParentMax=0;resizeLast=0;collapsible=1;marginBottom=0;whiteSpace=wrap;html=1;" vertex="1" parent="WIyWlLk6GJQsqaUBKTNV-1">
          <mxGeometry x="390" y="640" width="300" height="160" as="geometry" />
        </mxCell>
        <mxCell id="FUYMao5o1oho_74qPGuF-10" value="- x : QList&amp;lt;int&amp;gt;" style="text;strokeColor=none;fillColor=none;align=left;verticalAlign=top;spacingLeft=4;spacingRight=4;overflow=hidden;rotatable=0;points=[[0,0.5],[1,0.5]];portConstraint=eastwest;whiteSpace=wrap;html=1;" vertex="1" parent="FUYMao5o1oho_74qPGuF-9">
          <mxGeometry y="26" width="300" height="26" as="geometry" />
        </mxCell>
        <mxCell id="FUYMao5o1oho_74qPGuF-11" value="" style="line;strokeWidth=1;fillColor=none;align=left;verticalAlign=middle;spacingTop=-1;spacingLeft=3;spacingRight=3;rotatable=0;labelPosition=right;points=[];portConstraint=eastwest;strokeColor=inherit;" vertex="1" parent="FUYMao5o1oho_74qPGuF-9">
          <mxGeometry y="52" width="300" height="8" as="geometry" />
        </mxCell>
        <mxCell id="FUYMao5o1oho_74qPGuF-12" value="&lt;div&gt;+ QuantitySensor(name : QString)&lt;/div&gt;&lt;div&gt;+ QuantitySensor(name : QString, id : unsigned int,&amp;nbsp;&lt;/div&gt;&lt;div&gt;&lt;span style=&quot;white-space: pre;&quot;&gt;&#x9;&lt;/span&gt;&lt;span style=&quot;white-space: pre;&quot;&gt;&#x9;&lt;/span&gt;&lt;span style=&quot;white-space: pre;&quot;&gt;&#x9;&lt;/span&gt;&lt;span style=&quot;white-space: pre;&quot;&gt;&#x9;&lt;/span&gt;existingData : QList&amp;lt;int&amp;gt;)&lt;/div&gt;&lt;div&gt;+ Simulate( ) : void&lt;/div&gt;&lt;div&gt;+ getX( ) : unsigned int&lt;/div&gt;&lt;div&gt;+ accept(visitor : SensorVisitorInterface) : void&lt;/div&gt;&lt;div&gt;&lt;br&gt;&lt;/div&gt;&lt;div&gt;&lt;br&gt;&lt;br&gt;&lt;/div&gt;" style="text;strokeColor=none;fillColor=none;align=left;verticalAlign=top;spacingLeft=4;spacingRight=4;overflow=hidden;rotatable=0;points=[[0,0.5],[1,0.5]];portConstraint=eastwest;whiteSpace=wrap;html=1;" vertex="1" parent="FUYMao5o1oho_74qPGuF-9">
          <mxGeometry y="60" width="300" height="100" as="geometry" />
        </mxCell>
        <mxCell id="FUYMao5o1oho_74qPGuF-13" style="edgeStyle=orthogonalEdgeStyle;rounded=0;orthogonalLoop=1;jettySize=auto;html=1;entryX=0.5;entryY=1;entryDx=0;entryDy=0;entryPerimeter=0;" edge="1" parent="WIyWlLk6GJQsqaUBKTNV-1" source="FUYMao5o1oho_74qPGuF-9" target="FUYMao5o1oho_74qPGuF-3">
          <mxGeometry relative="1" as="geometry">
            <Array as="points">
              <mxPoint x="540" y="580" />
              <mxPoint x="335" y="580" />
            </Array>
          </mxGeometry>
        </mxCell>
        <mxCell id="FUYMao5o1oho_74qPGuF-19" style="edgeStyle=orthogonalEdgeStyle;rounded=0;orthogonalLoop=1;jettySize=auto;html=1;entryX=0.5;entryY=1;entryDx=0;entryDy=0;" edge="1" parent="WIyWlLk6GJQsqaUBKTNV-1" source="FUYMao5o1oho_74qPGuF-15" target="FUYMao5o1oho_74qPGuF-9">
          <mxGeometry relative="1" as="geometry" />
        </mxCell>
        <mxCell id="FUYMao5o1oho_74qPGuF-15" value="EventSensor" style="swimlane;fontStyle=1;align=center;verticalAlign=top;childLayout=stackLayout;horizontal=1;startSize=26;horizontalStack=0;resizeParent=1;resizeParentMax=0;resizeLast=0;collapsible=1;marginBottom=0;whiteSpace=wrap;html=1;" vertex="1" parent="WIyWlLk6GJQsqaUBKTNV-1">
          <mxGeometry x="390" y="830" width="300" height="170" as="geometry" />
        </mxCell>
        <mxCell id="FUYMao5o1oho_74qPGuF-16" value="&lt;div&gt;- y : QList&amp;lt;int&amp;gt;&lt;br&gt;&lt;/div&gt;" style="text;strokeColor=none;fillColor=none;align=left;verticalAlign=top;spacingLeft=4;spacingRight=4;overflow=hidden;rotatable=0;points=[[0,0.5],[1,0.5]];portConstraint=eastwest;whiteSpace=wrap;html=1;" vertex="1" parent="FUYMao5o1oho_74qPGuF-15">
          <mxGeometry y="26" width="300" height="24" as="geometry" />
        </mxCell>
        <mxCell id="FUYMao5o1oho_74qPGuF-17" value="" style="line;strokeWidth=1;fillColor=none;align=left;verticalAlign=middle;spacingTop=-1;spacingLeft=3;spacingRight=3;rotatable=0;labelPosition=right;points=[];portConstraint=eastwest;strokeColor=inherit;" vertex="1" parent="FUYMao5o1oho_74qPGuF-15">
          <mxGeometry y="50" width="300" height="8" as="geometry" />
        </mxCell>
        <mxCell id="FUYMao5o1oho_74qPGuF-18" value="&lt;div&gt;+ QuantitySensor(name : QString)&lt;/div&gt;&lt;div&gt;+ QuantitySensor(name : QString, id : unsigned int,&amp;nbsp;&lt;/div&gt;&lt;div&gt;&lt;span style=&quot;white-space: pre;&quot;&gt;&#x9;&lt;/span&gt;&lt;span style=&quot;white-space: pre;&quot;&gt;&#x9;&lt;/span&gt;&lt;span style=&quot;white-space: pre;&quot;&gt;&#x9;&lt;/span&gt;&lt;span style=&quot;white-space: pre;&quot;&gt;&#x9;&lt;/span&gt;xdata : QList&amp;lt;int&amp;gt;,&amp;nbsp;&lt;/div&gt;&lt;div&gt;&lt;span style=&quot;white-space: pre;&quot;&gt;&#x9;&lt;/span&gt;&lt;span style=&quot;white-space: pre;&quot;&gt;&#x9;&lt;/span&gt;&lt;span style=&quot;white-space: pre;&quot;&gt;&#x9;&lt;/span&gt;&lt;span style=&quot;white-space: pre;&quot;&gt;&#x9;&lt;/span&gt;ydata : QList&amp;lt;int&amp;gt;)&lt;/div&gt;&lt;div&gt;+ Simulate( ) : void&lt;/div&gt;&lt;div&gt;+ getX( ) : unsigned int&lt;/div&gt;&lt;div&gt;+ accept(visitor : SensorVisitorInterface) : void&lt;/div&gt;&lt;div&gt;&lt;br&gt;&lt;/div&gt;&lt;div&gt;&lt;br&gt;&lt;br&gt;&lt;/div&gt;" style="text;strokeColor=none;fillColor=none;align=left;verticalAlign=top;spacingLeft=4;spacingRight=4;overflow=hidden;rotatable=0;points=[[0,0.5],[1,0.5]];portConstraint=eastwest;whiteSpace=wrap;html=1;" vertex="1" parent="FUYMao5o1oho_74qPGuF-15">
          <mxGeometry y="58" width="300" height="112" as="geometry" />
        </mxCell>
        <mxCell id="FUYMao5o1oho_74qPGuF-20" value="SensorVisitorInterface" style="swimlane;fontStyle=0;childLayout=stackLayout;horizontal=1;startSize=26;fillColor=none;horizontalStack=0;resizeParent=1;resizeParentMax=0;resizeLast=0;collapsible=1;marginBottom=0;whiteSpace=wrap;html=1;" vertex="1" parent="WIyWlLk6GJQsqaUBKTNV-1">
          <mxGeometry x="520" y="360" width="240" height="80" as="geometry" />
        </mxCell>
        <mxCell id="FUYMao5o1oho_74qPGuF-21" value="&lt;div&gt;+ visitQuantitySensor(qs : QuantitySensor)&lt;/div&gt;&lt;div&gt;+ visitEventSensor(es : EventSensor)&lt;/div&gt;&lt;div&gt;+ visitXYSensor(xys : XYSensor)&lt;/div&gt;" style="text;strokeColor=none;fillColor=none;align=left;verticalAlign=top;spacingLeft=4;spacingRight=4;overflow=hidden;rotatable=0;points=[[0,0.5],[1,0.5]];portConstraint=eastwest;whiteSpace=wrap;html=1;" vertex="1" parent="FUYMao5o1oho_74qPGuF-20">
          <mxGeometry y="26" width="240" height="54" as="geometry" />
        </mxCell>
        <mxCell id="FUYMao5o1oho_74qPGuF-26" style="edgeStyle=orthogonalEdgeStyle;rounded=0;orthogonalLoop=1;jettySize=auto;html=1;entryX=0.5;entryY=1;entryDx=0;entryDy=0;" edge="1" parent="WIyWlLk6GJQsqaUBKTNV-1" source="FUYMao5o1oho_74qPGuF-24" target="FUYMao5o1oho_74qPGuF-20">
          <mxGeometry relative="1" as="geometry" />
        </mxCell>
        <mxCell id="FUYMao5o1oho_74qPGuF-24" value="JsonVisitor" style="swimlane;fontStyle=0;childLayout=stackLayout;horizontal=1;startSize=26;fillColor=none;horizontalStack=0;resizeParent=1;resizeParentMax=0;resizeLast=0;collapsible=1;marginBottom=0;whiteSpace=wrap;html=1;" vertex="1" parent="WIyWlLk6GJQsqaUBKTNV-1">
          <mxGeometry x="520" y="470" width="240" height="80" as="geometry" />
        </mxCell>
        <mxCell id="FUYMao5o1oho_74qPGuF-25" value="&lt;div&gt;+ visitQuantitySensor(qs : QuantitySensor)&lt;/div&gt;&lt;div&gt;+ visitEventSensor(es : EventSensor)&lt;/div&gt;&lt;div&gt;+ visitXYSensor(xys : XYSensor)&lt;/div&gt;" style="text;strokeColor=none;fillColor=none;align=left;verticalAlign=top;spacingLeft=4;spacingRight=4;overflow=hidden;rotatable=0;points=[[0,0.5],[1,0.5]];portConstraint=eastwest;whiteSpace=wrap;html=1;" vertex="1" parent="FUYMao5o1oho_74qPGuF-24">
          <mxGeometry y="26" width="240" height="54" as="geometry" />
        </mxCell>
        <mxCell id="FUYMao5o1oho_74qPGuF-27" value="DB" style="swimlane;fontStyle=1;align=center;verticalAlign=top;childLayout=stackLayout;horizontal=1;startSize=26;horizontalStack=0;resizeParent=1;resizeParentMax=0;resizeLast=0;collapsible=1;marginBottom=0;whiteSpace=wrap;html=1;" vertex="1" parent="WIyWlLk6GJQsqaUBKTNV-1">
          <mxGeometry x="190" y="110" width="290" height="230" as="geometry" />
        </mxCell>
        <mxCell id="FUYMao5o1oho_74qPGuF-28" value="&lt;div&gt;- sensors : QList&amp;lt;AbstractSensor*&amp;gt;&lt;/div&gt;&lt;div&gt;- visitor : JsonVisitor&lt;/div&gt;" style="text;strokeColor=none;fillColor=none;align=left;verticalAlign=top;spacingLeft=4;spacingRight=4;overflow=hidden;rotatable=0;points=[[0,0.5],[1,0.5]];portConstraint=eastwest;whiteSpace=wrap;html=1;" vertex="1" parent="FUYMao5o1oho_74qPGuF-27">
          <mxGeometry y="26" width="290" height="44" as="geometry" />
        </mxCell>
        <mxCell id="FUYMao5o1oho_74qPGuF-29" value="" style="line;strokeWidth=1;fillColor=none;align=left;verticalAlign=middle;spacingTop=-1;spacingLeft=3;spacingRight=3;rotatable=0;labelPosition=right;points=[];portConstraint=eastwest;strokeColor=inherit;" vertex="1" parent="FUYMao5o1oho_74qPGuF-27">
          <mxGeometry y="70" width="290" height="8" as="geometry" />
        </mxCell>
        <mxCell id="FUYMao5o1oho_74qPGuF-30" value="&lt;div&gt;+ DB( )&lt;/div&gt;&lt;div&gt;- clearList( ) : void&lt;/div&gt;&lt;div&gt;+ search(query : QString) : QList&amp;lt;AbstractSensor*&amp;gt;&lt;/div&gt;&lt;div&gt;+ insert(new : AbstractSensor*) : void&lt;/div&gt;&lt;div&gt;+ remove(key : unsigned int) : void&lt;/div&gt;&lt;div&gt;+ get(key : unsigned int) : AbstractSensor*&lt;/div&gt;&lt;div&gt;+ getLastSensorId( ) : unsigned int&lt;/div&gt;&lt;div&gt;+ getFirstSensorId( ) : unsigned int&lt;/div&gt;&lt;div&gt;+ saveToFile(path : QString) : void&lt;/div&gt;&lt;div&gt;+ loadFromFile(path : QString) : bool&lt;br&gt;&lt;/div&gt;" style="text;strokeColor=none;fillColor=none;align=left;verticalAlign=top;spacingLeft=4;spacingRight=4;overflow=hidden;rotatable=0;points=[[0,0.5],[1,0.5]];portConstraint=eastwest;whiteSpace=wrap;html=1;" vertex="1" parent="FUYMao5o1oho_74qPGuF-27">
          <mxGeometry y="78" width="290" height="152" as="geometry" />
        </mxCell>
        <mxCell id="FUYMao5o1oho_74qPGuF-33" value="" style="endArrow=diamondThin;endFill=0;endSize=24;html=1;rounded=0;entryX=-0.014;entryY=0.244;entryDx=0;entryDy=0;entryPerimeter=0;exitX=-0.004;exitY=0.298;exitDx=0;exitDy=0;exitPerimeter=0;" edge="1" parent="WIyWlLk6GJQsqaUBKTNV-1" source="FUYMao5o1oho_74qPGuF-1" target="FUYMao5o1oho_74qPGuF-28">
          <mxGeometry width="160" relative="1" as="geometry">
            <mxPoint y="320" as="sourcePoint" />
            <mxPoint x="160" y="320" as="targetPoint" />
            <Array as="points">
              <mxPoint x="150" y="396" />
              <mxPoint x="150" y="147" />
            </Array>
          </mxGeometry>
        </mxCell>
      </root>
    </mxGraphModel>
  </diagram>
</mxfile>
